<?xml version="1.0" encoding="utf-8"?>
<!-- Generator: Adobe Illustrator 24.0.2, SVG Export Plug-In . SVG Version: 6.00 Build 0)  -->
<svg version="1.1" id="Layer_1" xmlns="http://www.w3.org/2000/svg"
  xmlns:xlink="http://www.w3.org/1999/xlink" x="0px" y="0px"
  viewBox="0 0 814.1 238.6" style="enable-background:new 0 0 814.1 238.6;" xml:space="preserve" width="150px" height="43px">
<style type="text/css">
	.st0{fill:#FFFFFF;}
</style>
<g>
	<g>
		<path class="st0" d="M4.2,196.1l17.3-31.8c16.6,9.5,35.6,17.1,52.8,17.1c9.7,0,16.4-3.6,16.4-9.7c0-8-7.8-10.3-24.6-13.9
			c-33.9-6.9-58.3-18.7-58.3-48.4c0-30.9,27.6-46.7,62.5-46.7c24,0,45,6.3,61.4,19.8l-20.4,28C99.6,102,85,97.2,71.4,97.2
			c-10.5,0-17.3,2.5-17.3,9.7c0,5.9,6.1,9.9,24.2,13.7c37.9,7.8,58.3,18.7,58.3,46.7c0,30.7-27.6,48.6-63.1,48.6
			C44.8,215.9,20.2,207.7,4.2,196.1z"/>
		<path class="st0" d="M274.2,65.6v38.1h-44v109.2h-46.1V103.7h-43.8V65.6H274.2z"/>
		<path class="st0" d="M551.6,212.9l-30.5-41.7h-12.4v41.7h-45.9V65.6h67.3c42.1,0,68,20,68,53c0,22.1-11.4,38.1-31.4,46.3l35.3,48
			L551.6,212.9L551.6,212.9z M508.7,102.2v34.9h20.2c14.3,0,23.4-5.9,23.4-17.7c0-11.2-9-17.3-23.4-17.3L508.7,102.2L508.7,102.2z"
			/>
		<polygon class="st0" points="784.6,65.6 742.1,65.6 700.4,132.8 658.5,65.6 615.8,65.6 615.8,212.9 659.6,212.9 659.6,137.6
			693.5,192.5 707.4,192.5 740.8,137.8 740.8,212.9 784.6,212.9 784.6,89.1 809.4,65.6 		"/>
	</g>
	<g>
		<g>
			<path class="st0" d="M398.5,47.1C383.4,32,369.1,17.7,364.8,1.5c-4.3,16.2-18.7,30.5-33.7,45.6c-22.6,22.6-48.2,48.2-48.2,86.6
				c-0.1,33,19.3,61.4,47.3,74.5l15.4-26.3l-21-4.3c-2.6-0.5-3.8-3.6-2.3-5.8l28.9-41.3l-19.3-4.9c-3-0.8-3.8-4.6-1.4-6.5l66.9-52.7
				c3.2-2.6,7.6,1.3,5.5,4.8l-28.2,46.9l27.5,7c2.8,0.7,3.8,4.3,1.6,6.3l-37.9,35.5l24.4,6.2c3,0.8,3.8,4.6,1.4,6.5l-42.9,34.6
				c5.1,1,10.3,1.5,15.6,1.6c45.3,0.1,82.1-36.4,82.2-81.7c0-0.2,0-0.4,0-0.5C446.7,95.3,421.1,69.7,398.5,47.1z"/>
			<path class="st0" d="M320,237.6c-1.2,0-2.3-0.5-3.1-1.2c-1.5-1.3-2.4-3.6-1-5.9l28-47.9l-19.6-4c-1.6-0.3-2.8-1.4-3.4-2.9
				s-0.4-3.1,0.5-4.4l28.1-40.1l-17.9-4.6c-1.8-0.4-3.1-1.8-3.4-3.6c-0.4-1.8,0.3-3.6,1.7-4.7l66.9-52.7c2.1-1.7,4.6-1.1,6,0.2
				s2.3,3.6,0.9,6l-27.5,45.8l26.2,6.7c1.7,0.4,3,1.7,3.4,3.4c0.4,1.7-0.1,3.4-1.3,4.6l-36.5,34.3l22.6,5.8c1.7,0.4,3.1,1.8,3.4,3.6
				s-0.3,3.5-1.6,4.7l-69.5,56C322,237.3,321,237.6,320,237.6z M332.1,124.7l20.7,5.3L323,172.5c-0.5,0.8-0.6,1.7-0.3,2.6
				c0.3,0.9,1.1,1.5,2,1.6l22.4,4.6l-29.4,50.3c-0.8,1.4-0.2,2.7,0.6,3.4s2.2,1.1,3.5,0.1l69.5-56c0.8-0.7,1.2-1.7,1-2.7
				c-0.2-1-1-1.8-2-2.1l-26.2-6.6l39.2-36.8c0.7-0.7,1-1.7,0.8-2.6s-1-1.7-2-1.9l-28.8-7.4L402,70.8c0.9-1.4,0.3-2.7-0.5-3.4
				s-2.2-1.1-3.5-0.1l-66.9,52.7c-0.8,0.6-1.2,1.7-1,2.7C330.3,123.7,331,124.4,332.1,124.7L332.1,124.7z"/>
		</g>
	</g>
</g>
</svg>
